<?xml version="1.0" encoding="iso-8859-1"?>
<!-- Generator: Adobe Illustrator 19.0.0, SVG Export Plug-In . SVG Version: 6.00 Build 0)  -->
<svg version="1.1" id="Capa_1" xmlns="http://www.w3.org/2000/svg" xmlns:xlink="http://www.w3.org/1999/xlink" x="0px" y="0px"
	 viewBox="0 0 512 512" style="enable-background:new 0 0 512 512;" xml:space="preserve">
<g>
	<path style="fill:#D3C4BA;" d="M258.391,46.885h-4.78c-0.324,0-0.586-0.262-0.586-0.586V2.977C253.023,1.333,254.356,0,256,0l0,0
		c1.644,0,2.977,1.333,2.977,2.977v43.321C258.977,46.622,258.715,46.885,258.391,46.885z"/>
	<path style="fill:#D3C4BA;" d="M235.725,73.185h-4.78c-0.324,0-0.586-0.262-0.586-0.586V29.277c0-1.644,1.333-2.977,2.977-2.977
		l0,0c1.644,0,2.977,1.333,2.977,2.977v43.321C236.312,72.922,236.049,73.185,235.725,73.185z"/>
</g>
<rect x="230.139" y="73.185" style="fill:#83C9FF;" width="51.712" height="72.234"/>
<g>
	<path style="fill:#A9DCFF;" d="M245.032,129.422c-4.414,0-7.991-3.578-7.991-7.991V77.326c0-4.414,3.578-7.991,7.991-7.991
		s7.991,3.578,7.991,7.991v44.105C253.023,125.845,249.445,129.422,245.032,129.422z"/>
	<path style="fill:#A9DCFF;" d="M266.968,129.422c-4.414,0-7.991-3.578-7.991-7.991V77.326c0-4.414,3.578-7.991,7.991-7.991
		s7.991,3.578,7.991,7.991v44.105C274.961,125.845,271.383,129.422,266.968,129.422z"/>
</g>
<rect x="230.139" y="121.428" style="fill:#E0D7D0;" width="51.712" height="47.967"/>
<rect x="230.139" y="141.051" style="fill:#D3C4BA;" width="52.025" height="28.359"/>
<path style="fill:#D1D1D1;" d="M297.706,178.339c-0.582,0-1.171-0.065-1.763-0.197c-4.306-0.969-7.01-5.245-6.041-9.551l4.94-18.717
	c0.019-0.087,0.072-0.321-0.134-0.579c-0.206-0.257-0.445-0.257-0.535-0.257h-76.348c-0.09,0-0.329,0-0.535,0.257
	c-0.206,0.257-0.154,0.491-0.134,0.58l4.94,16.493c0.97,4.306-1.736,8.583-6.042,9.552c-4.305,0.961-8.583-1.737-9.551-6.042
	l-4.94-16.494c-1.118-4.968,0.065-10.098,3.245-14.074c3.181-3.976,7.925-6.256,13.016-6.256h76.348
	c5.091,0,9.835,2.28,13.015,6.256c3.181,3.976,4.365,9.105,3.246,14.073l-4.941,18.718
	C304.66,175.816,301.361,178.339,297.706,178.339z"/>
<path style="fill:#E0D7D0;" d="M330.325,512H181.675c-3.741,0-6.29-3.744-4.971-7.243c6.574-17.433,11.911-37.17,16.224-58.086
	c2.995-14.513,5.509-29.601,7.587-44.882c0.959-6.83,1.812-13.703,2.589-20.587c2.504-22.089,4.231-44.242,5.381-65.329
	c0.863-15.695,1.417-30.816,1.759-44.882c0.17-7.161,0.287-14.033,0.363-20.597c0.469-41.301-0.831-69.485-0.831-69.485h92.447
	c0,0-1.3,28.184-0.831,69.485c0.074,6.564,0.192,13.436,0.363,20.597c0.341,14.065,0.895,29.185,1.759,44.882
	c1.15,21.087,2.877,43.24,5.381,65.329c0.777,6.884,1.63,13.756,2.589,20.587c2.078,15.28,4.592,30.368,7.587,44.882
	c4.313,20.916,9.651,40.653,16.224,58.086C336.615,508.256,334.065,512,330.325,512z"/>
<g>
	<path style="fill:#D3C4BA;" d="M301.755,270.992h-91.51c0.17-7.161,0.287-14.033,0.363-20.597h90.785
		C301.468,256.959,301.585,263.831,301.755,270.992z"/>
	<path style="fill:#D3C4BA;" d="M311.483,401.789H200.517c0.959-6.83,1.812-13.703,2.589-20.587h105.789
		C309.672,388.087,310.525,394.959,311.483,401.789z"/>
</g>
<path style="fill:#AF2E2E;" d="M301.435,210.639c-0.149,10.933-0.213,24.444-0.043,39.756h-90.785
	c0.17-15.312,0.107-28.824-0.043-39.756c-0.266-18.562-0.789-29.729-0.789-29.729h92.447
	C302.224,180.91,301.702,192.077,301.435,210.639z"/>
<path style="fill:#9B2A2A;" d="M302.224,180.91c0,0-0.522,11.167-0.789,29.729h-90.871c-0.266-18.562-0.789-29.729-0.789-29.729
	H302.224z"/>
<path style="fill:#AF2E2E;" d="M308.894,381.203H203.106c1.353-11.902,2.472-23.836,3.399-35.601
	c0.799-10.059,1.449-20,1.982-29.729h95.026c0.533,9.729,1.183,19.67,1.982,29.729C306.423,357.367,307.541,369.3,308.894,381.203z"
	/>
<path style="fill:#9B2A2A;" d="M305.495,345.603h-98.99c0.799-10.059,1.449-20,1.982-29.729h95.026
	C304.046,325.602,304.696,335.544,305.495,345.603z"/>
<path style="fill:#AF2E2E;" d="M330.326,512H181.674c-3.714,0-6.303-3.707-4.991-7.182c3.367-8.917,6.406-18.438,9.15-28.418
	c2.632-9.537,4.987-19.489,7.097-29.729h126.14c2.11,10.24,4.465,20.193,7.097,29.729c2.744,9.981,5.784,19.502,9.15,28.418
	C336.629,508.293,334.039,512,330.326,512z"/>
<path style="fill:#9B2A2A;" d="M326.167,476.399H185.833c2.632-9.537,4.987-19.489,7.097-29.729h126.14
	C321.18,456.911,323.535,466.864,326.167,476.399z"/>
<path style="fill:#E0E0E3;" d="M308.532,180.569v7.725H203.468v-7.725c0-7.853,6.351-14.204,14.204-14.204h76.656
	C302.181,166.366,308.532,172.716,308.532,180.569z"/>
<g>
	<rect x="248.007" y="166.369" style="fill:#D1D1D1;" width="15.984" height="21.929"/>
	<path style="fill:#D1D1D1;" d="M293.551,188.295h-16.005c-0.767-12.552-4.358-20.054-5.371-21.929h17.327
		C291.302,171.554,293.081,178.896,293.551,188.295z"/>
	<path style="fill:#D1D1D1;" d="M239.825,166.366c-1.044,1.982-4.603,9.558-5.359,21.929h-16.015
		c0.469-9.398,2.249-16.74,4.049-21.929H239.825z"/>
</g>
<path style="fill:#E0D7D0;" d="M283.326,72.196c-1.549-8.298-6.786-15.296-13.943-19.236c-5.516-3.036-9.045-8.726-9.045-15.022
	v-0.071c0-2.396-1.942-4.338-4.338-4.338l0,0c-2.396,0-4.338,1.942-4.338,4.338v0.072c0,6.297-3.529,11.986-9.045,15.022
	c-7.158,3.939-12.395,10.938-13.943,19.236c-0.497,2.666,1.563,5.129,4.275,5.129h46.102
	C281.763,77.326,283.824,74.862,283.326,72.196z"/>
<g>
	<path style="fill:#524C45;" d="M269.852,224.085c-4.414,0-7.991-3.578-7.991-7.991v-5.113c0-4.414,3.578-7.991,7.991-7.991
		c4.414,0,7.991,3.578,7.991,7.991v5.113C277.844,220.507,274.267,224.085,269.852,224.085z"/>
	<path style="fill:#524C45;" d="M269.852,265.674c-4.414,0-7.991-3.578-7.991-7.991v-5.113c0-4.414,3.578-7.991,7.991-7.991
		c4.414,0,7.991,3.578,7.991,7.991v5.113C277.844,262.096,274.267,265.674,269.852,265.674z"/>
	<path style="fill:#524C45;" d="M269.852,305.917c-4.414,0-7.991-3.578-7.991-7.991v-5.113c0-4.414,3.578-7.991,7.991-7.991
		c4.414,0,7.991,3.578,7.991,7.991v5.113C277.844,302.339,274.267,305.917,269.852,305.917z"/>
	<path style="fill:#524C45;" d="M229.832,359.771c-4.414,0-7.991-3.578-7.991-7.991v-10.649c0-4.414,3.578-7.991,7.991-7.991
		c4.414,0,7.991,3.578,7.991,7.991v10.649C237.823,356.193,234.245,359.771,229.832,359.771z"/>
</g>
<g>
</g>
<g>
</g>
<g>
</g>
<g>
</g>
<g>
</g>
<g>
</g>
<g>
</g>
<g>
</g>
<g>
</g>
<g>
</g>
<g>
</g>
<g>
</g>
<g>
</g>
<g>
</g>
<g>
</g>
</svg>
